<?xml version="1.0" encoding="utf-8"?>
<!-- Generator: Adobe Illustrator 22.1.0, SVG Export Plug-In . SVG Version: 6.00 Build 0)  -->
<svg version="1.1" id="Layer_1" xmlns="http://www.w3.org/2000/svg" xmlns:xlink="http://www.w3.org/1999/xlink" x="0px" y="0px"
	 viewBox="0 0 256 256" style="enable-background:new 0 0 256 256;" xml:space="preserve">
<style type="text/css">
	.st0{fill:#D73735;}
	.st1{fill:#F85252;}
	.st2{fill:#EDAF85;}
	.st3{fill:#F7C09A;}
	.st4{fill:#D8D6D7;}
	.st5{fill:#FFFFFF;}
	.st6{fill:#1C868E;}
	.st7{fill:#40C4DF;}
	.st8{fill:#491352;}
	.st9{fill:#56C1B3;}
	.st10{fill:#7BEFE4;}
</style>
<g>
	<rect x="114.17" y="147.795" class="st4" width="27.66" height="84.16"/>
	<rect x="131.09" y="147.795" class="st5" width="10.74" height="84.16"/>
	<g>
		<path class="st4" d="M245.36,166.022H10.64c-2.761,0-5-2.239-5-5V8.125c0-2.761,2.239-5,5-5h234.72c2.761,0,5,2.239,5,5v152.897
			C250.36,163.783,248.121,166.022,245.36,166.022z"/>
	</g>
	<path class="st6" d="M237.36,21.125v126.9c0,2.76-2.24,5-5,5H23.64c-2.76,0-5-2.24-5-5v-126.9c0-2.76,2.24-5,5-5h208.72
		C235.12,16.125,237.36,18.365,237.36,21.125z"/>
	<path class="st7" d="M237.36,21.125v126.9c0,2.76-2.24,5-5,5H45.39c-2.76,0-5-2.24-5-5v-126.9c0-2.76,2.24-5,5-5h186.97
		C235.12,16.125,237.36,18.365,237.36,21.125z"/>
	<path class="st4" d="M191.67,236.955v11.67c0,2.76-2.24,5-5,5H69.33c-2.76,0-5-2.24-5-5v-11.67c0-2.76,2.24-5,5-5h117.34
		C189.43,231.955,191.67,234.195,191.67,236.955z"/>
	<path class="st5" d="M191.67,236.955v11.67c0,2.76-2.24,5-5,5H85.33c-2.76,0-5-2.24-5-5v-11.67c0-2.76,2.24-5,5-5h101.34
		C189.43,231.955,191.67,234.195,191.67,236.955z"/>
	<g>
		<path class="st8" d="M245.36,0.75H10.64c-3.86,0-7,3.141-7,7v152.896c0,3.859,3.14,7,7,7h101.53v61.933H69.333
			c-3.86,0-7,3.141-7,7v11.671c0,3.859,3.14,7,7,7h117.333c3.86,0,7-3.141,7-7v-11.671c0-3.859-3.14-7-7-7H143.83v-61.933h101.53
			c3.86,0,7-3.141,7-7V7.75C252.36,3.891,249.22,0.75,245.36,0.75z M186.667,233.579c1.654,0,3,1.346,3,3v11.671
			c0,1.654-1.346,3-3,3H69.333c-1.654,0-3-1.346-3-3v-11.671c0-1.654,1.346-3,3-3C71.109,233.579,184.345,233.579,186.667,233.579z
			 M116.17,229.579v-61.933h23.66v61.933H116.17z M248.36,160.646c0,1.654-1.346,3-3,3H10.64c-1.654,0-3-1.346-3-3V7.75
			c0-1.654,1.346-3,3-3h234.72c1.654,0,3,1.346,3,3V160.646z"/>
		<path class="st8" d="M232.36,13.75H23.64c-3.86,0-7,3.141-7,7v126.896c0,3.859,3.14,7,7,7h208.72c3.86,0,7-3.141,7-7V20.75
			C239.36,16.891,236.22,13.75,232.36,13.75z M235.36,147.646c0,1.654-1.346,3-3,3H23.64c-1.654,0-3-1.346-3-3V20.75
			c0-1.654,1.346-3,3-3h208.72c1.654,0,3,1.346,3,3V147.646z"/>
		<path class="st8" d="M213.25,95.948h-50.7c-14.535-32.704-13.467-31.292-15.059-31.485c-1.57-0.189-0.604-0.81-18.267,21.966
			l-10.529-43.946c-0.492-2.056-3.421-2.037-3.894,0.017l-17.017,73.887C84.823,58.059,86,60.694,83.978,60.461
			c-1.957-0.239-0.809-1.43-18.487,35.487H42.75c-2.642,0-2.646,4,0,4h24c0.77,0,1.471-0.441,1.804-1.136l14.5-30.279l12.744,57.349
			c0.46,2.07,3.422,2.097,3.901,0.016l17.09-74.205l9.517,39.722c0.389,1.624,2.494,2.089,3.525,0.76l16.95-21.856l12.642,28.443
			c0.321,0.722,1.037,1.188,1.828,1.188h52C215.892,99.948,215.896,95.948,213.25,95.948z"/>
	</g>
</g>
</svg>
